<mxfile host="app.diagrams.net" modified="2024-07-19T13:36:15.066Z" agent="Mozilla/5.0 (Windows NT 10.0; Win64; x64) AppleWebKit/537.36 (KHTML, like Gecko) Chrome/123.0.0.0 Safari/537.36 OPR/109.0.0.0" etag="tMtcrHV1psUjGX9vCx7y" version="24.7.2" type="github">
  <diagram id="C5RBs43oDa-KdzZeNtuy" name="Page-1">
    <mxGraphModel dx="1393" dy="769" grid="1" gridSize="10" guides="1" tooltips="1" connect="1" arrows="1" fold="1" page="1" pageScale="1" pageWidth="827" pageHeight="1169" math="0" shadow="0">
      <root>
        <mxCell id="WIyWlLk6GJQsqaUBKTNV-0" />
        <mxCell id="WIyWlLk6GJQsqaUBKTNV-1" parent="WIyWlLk6GJQsqaUBKTNV-0" />
        <mxCell id="Z2QIzlZwCajhk56OlqP1-20" style="edgeStyle=orthogonalEdgeStyle;rounded=0;orthogonalLoop=1;jettySize=auto;html=1;" edge="1" parent="WIyWlLk6GJQsqaUBKTNV-1" source="Z2QIzlZwCajhk56OlqP1-0" target="Z2QIzlZwCajhk56OlqP1-5">
          <mxGeometry relative="1" as="geometry" />
        </mxCell>
        <mxCell id="Z2QIzlZwCajhk56OlqP1-0" value="Pojazd" style="rounded=1;whiteSpace=wrap;html=1;fillColor=#d5e8d4;strokeColor=#82b366;" vertex="1" parent="WIyWlLk6GJQsqaUBKTNV-1">
          <mxGeometry x="100" y="40" width="120" height="60" as="geometry" />
        </mxCell>
        <mxCell id="Z2QIzlZwCajhk56OlqP1-18" style="edgeStyle=orthogonalEdgeStyle;rounded=0;orthogonalLoop=1;jettySize=auto;html=1;entryX=0;entryY=0.5;entryDx=0;entryDy=0;" edge="1" parent="WIyWlLk6GJQsqaUBKTNV-1" source="Z2QIzlZwCajhk56OlqP1-1" target="Z2QIzlZwCajhk56OlqP1-7">
          <mxGeometry relative="1" as="geometry" />
        </mxCell>
        <mxCell id="Z2QIzlZwCajhk56OlqP1-19" style="edgeStyle=orthogonalEdgeStyle;rounded=0;orthogonalLoop=1;jettySize=auto;html=1;entryX=0;entryY=0.5;entryDx=0;entryDy=0;" edge="1" parent="WIyWlLk6GJQsqaUBKTNV-1" source="Z2QIzlZwCajhk56OlqP1-1" target="Z2QIzlZwCajhk56OlqP1-3">
          <mxGeometry relative="1" as="geometry" />
        </mxCell>
        <mxCell id="Z2QIzlZwCajhk56OlqP1-1" value="Karta rozliczenia paliwa" style="rounded=1;whiteSpace=wrap;html=1;fillColor=#dae8fc;strokeColor=#6c8ebf;" vertex="1" parent="WIyWlLk6GJQsqaUBKTNV-1">
          <mxGeometry x="414" y="270" width="120" height="60" as="geometry" />
        </mxCell>
        <mxCell id="Z2QIzlZwCajhk56OlqP1-21" style="edgeStyle=orthogonalEdgeStyle;rounded=0;orthogonalLoop=1;jettySize=auto;html=1;entryX=1;entryY=0.25;entryDx=0;entryDy=0;" edge="1" parent="WIyWlLk6GJQsqaUBKTNV-1" source="Z2QIzlZwCajhk56OlqP1-2" target="Z2QIzlZwCajhk56OlqP1-0">
          <mxGeometry relative="1" as="geometry" />
        </mxCell>
        <mxCell id="Z2QIzlZwCajhk56OlqP1-2" value="Stawka" style="rounded=1;whiteSpace=wrap;html=1;fillColor=#dae8fc;strokeColor=#6c8ebf;" vertex="1" parent="WIyWlLk6GJQsqaUBKTNV-1">
          <mxGeometry x="270" y="90" width="120" height="60" as="geometry" />
        </mxCell>
        <mxCell id="Z2QIzlZwCajhk56OlqP1-3" value="Informacja dotycząca prac" style="rounded=1;whiteSpace=wrap;html=1;fillColor=#e1d5e7;strokeColor=#9673a6;" vertex="1" parent="WIyWlLk6GJQsqaUBKTNV-1">
          <mxGeometry x="590" y="330" width="120" height="60" as="geometry" />
        </mxCell>
        <mxCell id="Z2QIzlZwCajhk56OlqP1-15" style="edgeStyle=orthogonalEdgeStyle;rounded=0;orthogonalLoop=1;jettySize=auto;html=1;" edge="1" parent="WIyWlLk6GJQsqaUBKTNV-1" source="Z2QIzlZwCajhk56OlqP1-4" target="Z2QIzlZwCajhk56OlqP1-1">
          <mxGeometry relative="1" as="geometry" />
        </mxCell>
        <mxCell id="Z2QIzlZwCajhk56OlqP1-4" value="Informacja dotycząca wydania paliwa" style="rounded=1;whiteSpace=wrap;html=1;fillColor=#e1d5e7;strokeColor=#9673a6;" vertex="1" parent="WIyWlLk6GJQsqaUBKTNV-1">
          <mxGeometry x="40" y="430" width="120" height="60" as="geometry" />
        </mxCell>
        <mxCell id="Z2QIzlZwCajhk56OlqP1-5" value="Norma paliwa" style="rounded=1;whiteSpace=wrap;html=1;fillColor=#dae8fc;strokeColor=#6c8ebf;" vertex="1" parent="WIyWlLk6GJQsqaUBKTNV-1">
          <mxGeometry x="10" y="150" width="120" height="60" as="geometry" />
        </mxCell>
        <mxCell id="Z2QIzlZwCajhk56OlqP1-11" style="edgeStyle=orthogonalEdgeStyle;rounded=0;orthogonalLoop=1;jettySize=auto;html=1;exitX=0.75;exitY=0;exitDx=0;exitDy=0;entryX=0.75;entryY=1;entryDx=0;entryDy=0;" edge="1" parent="WIyWlLk6GJQsqaUBKTNV-1" source="Z2QIzlZwCajhk56OlqP1-6" target="Z2QIzlZwCajhk56OlqP1-0">
          <mxGeometry relative="1" as="geometry" />
        </mxCell>
        <mxCell id="Z2QIzlZwCajhk56OlqP1-17" style="edgeStyle=orthogonalEdgeStyle;rounded=0;orthogonalLoop=1;jettySize=auto;html=1;" edge="1" parent="WIyWlLk6GJQsqaUBKTNV-1" source="Z2QIzlZwCajhk56OlqP1-6" target="Z2QIzlZwCajhk56OlqP1-4">
          <mxGeometry relative="1" as="geometry" />
        </mxCell>
        <mxCell id="Z2QIzlZwCajhk56OlqP1-6" value="Karta wydania paliwa" style="rounded=1;whiteSpace=wrap;html=1;fillColor=#dae8fc;strokeColor=#6c8ebf;" vertex="1" parent="WIyWlLk6GJQsqaUBKTNV-1">
          <mxGeometry x="70" y="300" width="120" height="60" as="geometry" />
        </mxCell>
        <mxCell id="Z2QIzlZwCajhk56OlqP1-7" value="Nabycie paliwa na fakturę" style="rounded=1;whiteSpace=wrap;html=1;fillColor=#dae8fc;strokeColor=#6c8ebf;" vertex="1" parent="WIyWlLk6GJQsqaUBKTNV-1">
          <mxGeometry x="590" y="180" width="120" height="60" as="geometry" />
        </mxCell>
        <mxCell id="Z2QIzlZwCajhk56OlqP1-22" style="edgeStyle=orthogonalEdgeStyle;rounded=0;orthogonalLoop=1;jettySize=auto;html=1;entryX=0.925;entryY=1.1;entryDx=0;entryDy=0;entryPerimeter=0;" edge="1" parent="WIyWlLk6GJQsqaUBKTNV-1" source="Z2QIzlZwCajhk56OlqP1-1" target="Z2QIzlZwCajhk56OlqP1-0">
          <mxGeometry relative="1" as="geometry" />
        </mxCell>
      </root>
    </mxGraphModel>
  </diagram>
</mxfile>
